# xmcd
#
# Track frame offsets:
#   150
#   15987
#   29984
#   42900
#   56216
#   71396
#   87113
#   99553
#   112540
#   126548
#   139094
#   151064
#   163534
#   175711
#   192965
#   205448
#   219954
#   234868
#   246453
#   262524
#
# Disc length: 3656 seconds
#
# Revision: 0
# Processed by: cddbd v1.5.2PL0 Copyright (c) Steve Scherf et al.
# Submitted via: uFREEDB ActiveX Control 1.5
#
DISCID=080e4614
DTITLE=San Marino - Ele te traiu
DYEAR=2008
DGENRE=Soundtrack
TTITLE0=Ele te trai
TTITLE1=Preciso te falar
TTITLE2=Um mais um, dois apaixonados
TTITLE3=Caixa postal
TTITLE4=Tome um copo de cerveja
TTITLE5=Nosso Amor é elétrico
TTITLE6=Voce nao vale nada
TTITLE7=Coração vagabundo
TTITLE8=Página virada
TTITLE9=Fugido pro bailão
TTITLE10=E de balaio
TTITLE11=Colinho do pai
TTITLE12=Se foi por amor
TTITLE13=Foto 3X4
TTITLE14=Mulher Transgenica
TTITLE15=É hoje que a casa cai
TTITLE16=Essa cama eu não vendo
TTITLE17=Gostinho de baton
TTITLE18=Pintou uma paixão
TTITLE19=Morenaça
EXTD=
EXTT0=
EXTT1=
EXTT2=
EXTT3=
EXTT4=
EXTT5=
EXTT6=
EXTT7=
EXTT8=
EXTT9=
EXTT10=
EXTT11=
EXTT12=
EXTT13=
EXTT14=
EXTT15=
EXTT16=
EXTT17=
EXTT18=
EXTT19=
PLAYORDER=
